{"title":"Movie 43 2013 DVDrip English Klam","uid":9702963,"size":1536289367,"categoryP":"video","categoryS":"movies","magnet":"?xt=urn:btih:e65d909ddbe44b8637030ddf7a90f789a7888389&amp;dn=Movie+43+2013+DVDrip+English+Klam&amp;tr=udp%3A%2F%2Ftracker.openbittorrent.com%3A80&amp;tr=udp%3A%2F%2Fopen.demonii.com%3A1337&amp;tr=udp%3A%2F%2Ftracker.coppersurfer.tk%3A6969&amp;tr=udp%3A%2F%2Fexodus.desync.com%3A6969","seeders":2,"leechers":1,"uploader":"Klambake","files":-1,"time":1394031411,"description":"With: Hugh Jackman, Kate Winslet and Halle Berry\n\n'Movie 43' is een komedie die bestaat uit diverse korte films, elk met een eigen regisseur en vele bekende acteurs. Enkele verhalen zijn; Een psychopathische moeder (Naomi Watts), die lijdt aan borderline, geeft samen met haar man (Liev Schreiber) thuis les aan hun zoon (Jeremy Allen), maar onderwerpen hem aan pesterijen. Een vrouw (Kate Winslet) heeft een blind date met een man (Hugh Jackman) en komt er achter dat hij een rare geboorteafwijking heeft, waarna ze compleet door het lint gaat. Een coach (Terrence Howard) van een volledig zwart basketbalteam in de jaren '50 geeft zijn spelers advies dat duidelijk niet politiek correct is.Een knappe vrouw (Halle Berry) speelt een spelletje 'truth or dare' in een restaurant.\n\nA series of interconnected short films follows a washed-up producer as he pitches insane story lines featuring some of the biggest stars in Hollywood.\n &lt;a href=&quot;\nhttp://www.imdb.com/title/tt1333125&quot; rel=&quot;nofollow&quot; target=&quot;_NEW&quot;&gt;\nhttp://www.imdb.com/title/tt1333125&lt;/a&gt;\t\n\n--------------------- Dutch Friends 4ever ---------------------\n---------------------------------------------------------------\n- Bezoek ook eens mijn vrienden op: &lt;a href=&quot; http://www.Film-Test.nl&quot; rel=&quot;nofollow&quot; target=&quot;_NEW&quot;&gt; http://www.Film-Test.nl&lt;/a&gt; --\n----- voor mijn Nederlandse Sync. ondertitels ---- en meer ----\n------- http://www.Film-Test.nl ---- Over Films en meer -------\n---------------------------------------------------------------\n\nGeneral:\n\nComplete name                            : Movie 43Movie 43.avi\nFormat                                   : AVI\nFormat/Info                              : Audio Video Interleave\nFile size                                : 1.43 GiB\nDuration                                 : 1h 34mn\nOverall bit rate                         : 2 178 Kbps\n\nVideo:\n\nFormat                                   : MPEG-4 Visual\nFormat profile                           : Simple@L3\nFormat settings, BVOP                    : No\nFormat settings, QPel                    : No\nFormat settings, GMC                     : No warppoints\nFormat settings, Matrix                  : Default (H.263)\nCodec ID                                 : XVID\nCodec ID/Hint                            : XviD\nDuration                                 : 1h 34mn\nBit rate                                 : 1 719 Kbps\nWidth                                    : 652 pixels\nHeight                                   : 352 pixels\nDisplay aspect ratio                     : 1.85:1\nFrame rate                               : 25.000 fps\nColor space                              : YUV\nChroma subsampling                       : 4:2:0\nBit depth                                : 8 bits\nScan type                                : Progressive\nCompression mode                         : Lossy\nBits/(Pixel*Frame)                       : 0.300\nStream size                              : 1.13 GiB (79%)\nWriting library                          : XviD 1.1.2 (UTC 2006-11-01)\n\nAudio:\n\nFormat                                   : AC-3\nFormat/Info                              : Audio Coding 3\nMode extension                           : CM (complete main)\nFormat settings, Endianness              : Big\nCodec ID                                 : 2000\nDuration                                 : 1h 34mn\nSource duration                          : 1h 34mn\nBit rate mode                            : Constant\nBit rate                                 : 448 Kbps\nChannel(s)                               : 6 channels\nChannel positions                        : Front: L C R, Side: L R, LFE\nSampling rate                            : 48.0 KHz\nBit depth                                : 16 bits\nCompression mode                         : Lossy\nStream size                              : 301 MiB (21%)\nAlignment                                : Aligned on interleaves\nInterleave, duration                     : 32 ms (0.80 video frame)\n","torrent":{"xt":"urn:btih:e65d909ddbe44b8637030ddf7a90f789a7888389","amp;dn":"Movie+43+2013+DVDrip+English+Klam","amp;tr":["udp%3A%2F%2Ftracker.openbittorrent.com%3A80","udp%3A%2F%2Fopen.demonii.com%3A1337","udp%3A%2F%2Ftracker.coppersurfer.tk%3A6969","udp%3A%2F%2Fexodus.desync.com%3A6969"],"infoHash":"e65d909ddbe44b8637030ddf7a90f789a7888389","infoHashBuffer":{"type":"Buffer","data":[230,93,144,157,219,228,75,134,55,3,13,223,122,144,247,137,167,136,131,137]},"announce":[],"urlList":[]}}